PathFileType	4	(X/Y/Z)	T1_P2_NoVision_Movement_3_0-732.trc
DataRate	CameraRate	NumFrames	NumMarkers	Units	OrigDataRate	OrigDataStartFrame	OrigNumFrames
60	60	6	27	m	60	274	732
Frame#	Time	RHip			RKnee			RAnkle			RBigToe			RSmallToe			RHeel			LHip			LKnee			LAnkle			LBigToe			LSmallToe			LHeel			Neck			Head			Nose			RShoulder			RElbow			RWrist			RThumb			RIndex			RPinky			LShoulder			LElbow			LWrist			LThumb			LIndex			LPinky		
		X1	Y1	Z1	X2	Y2	Z2	X3	Y3	Z3	X4	Y4	Z4	X5	Y5	Z5	X6	Y6	Z6	X7	Y7	Z7	X8	Y8	Z8	X9	Y9	Z9	X10	Y10	Z10	X11	Y11	Z11	X12	Y12	Z12	X13	Y13	Z13	X14	Y14	Z14	X15	Y15	Z15	X16	Y16	Z16	X17	Y17	Z17	X18	Y18	Z18	X19	Y19	Z19	X20	Y20	Z20	X21	Y21	Z21	X22	Y22	Z22	X23	Y23	Z23	X24	Y24	Z24	X25	Y25	Z25	X26	Y26	Z26	X27	Y27	Z27
275	4.583333333333333	461.00168725071376	3597.2992737033164	551.013223574638	861.4934466188304	3617.610116428994	552.006492755577	1243.784735238973	3703.8716112472357	624.1937872059148	1331.3420353693748	3611.11365826805	606.0969212890997	1304.112140686994	3619.187966392542	543.7156774084983	1270.459073782863	3698.527047612611	631.4371616386613	471.75584752865785	3495.144017211806	743.9080599886765	879.3590431602656	3528.881193966993	747.2744093200617	1236.120472080192	3601.510679572253	732.7490225376065	1332.0606548519552	3563.0950708842224	685.4603319705046	1283.7691307632363	3478.9494261933564	716.5055320473147	1274.2626147862734	3618.915896277389	725.1741755152864	-120.92991965462096	3560.772881531712	681.810921932047	-383.61858846887566	3495.6886908902493	641.8893568549186	-232.68010464289205	3382.368263953917	596.8277425204901	-39.86821472010645	3645.385754239601	547.2158557828502	207.32014400362837	3758.6558153015144	499.3189039549452	426.739574211905	3631.7185619013007	415.5850492437934	539.2002226105193	3508.4070622463028	398.80319442088137	547.6078159665886	3515.947590667303	376.0477422021678	553.792374995111	3638.861720425545	395.6151150252538	-18.004622696830037	3514.405838675586	851.1043330901828	242.94482270607176	3480.4373797729336	879.303495634028	493.56650724801653	3450.9533191630717	869.7226267458932	603.5307080176128	3435.9196765454653	829.3785157207592	597.9769474047876	3353.4302315128425	812.777407853422	610.4105035517183	3394.773277253398	892.4617349531374
276	4.6	461.9247944455292	3596.6998874893447	550.7314175622901	865.7205053254794	3621.061918628676	554.9741137914107	1244.051881686395	3702.957269251777	624.0892309606504	1331.6699628946947	3610.7457826496056	605.8238036498014	1304.3381198030452	3619.258363968249	543.5696235747989	1271.1661105384208	3694.9882349110662	629.8969150081235	470.81965552834134	3492.9131917709415	742.4515406820274	881.5926155611043	3526.616407758314	745.4936191705121	1235.659946234736	3599.799549750732	731.7513169139139	1332.0187739276266	3562.8950931816566	685.4023965429094	1281.7985795814343	3475.234364252616	712.9833516621977	1274.2064166134178	3618.8989185984756	725.0879109840247	-120.42746562431272	3563.065268915168	683.5864297288649	-383.88413120482664	3495.944647236861	642.0988258345606	-232.68654895548113	3381.9949225002897	596.8285312716649	-39.77522706450484	3645.4179655307726	547.2212292516783	206.70747368419472	3756.812290137081	498.44299154580017	427.53994936021314	3637.026483399063	416.6222724146942	538.5083053676807	3509.556366625243	398.0620956784228	546.6890045182776	3517.255339677089	376.6127597936345	555.2533957094619	3639.191675806016	395.8048291305483	-19.13074804977449	3515.2723909246292	851.5306924041045	242.35641490596126	3479.110985849146	878.3724206279916	492.63553370652954	3450.2722872123204	869.4021134408823	602.7670979963466	3430.3105500206098	827.393769883526	595.9299282768015	3345.115827033026	807.0751005683536	608.1258817591973	3390.66611604064	888.7197875289655
277	4.616666666666666	463.26586861394014	3598.0342530664357	551.929280427131	870.5664817631805	3627.5934466969393	560.0954975784315	1244.0429811067831	3702.591502156084	624.1364950489244	1331.9159231384458	3610.930983383376	605.3156056202861	1303.0651793705242	3618.5377609665793	543.1699192739126	1271.7319350126936	3693.242546565446	629.425422143475	471.28061110820954	3493.7527083717705	743.5123713202403	883.7987993998968	3524.9441008756035	743.3889957801352	1235.9853132346998	3597.397559005016	730.7752899975109	1331.943731651592	3562.734273369061	685.3166080440955	1279.1360466387284	3469.610768009502	708.2611974525737	1274.1689715200478	3618.7828873263024	724.964597289499	-119.04096365552404	3567.2215182663476	687.1738630351952	-383.55316024845126	3495.7103963119803	642.0436528938878	-232.68396720717246	3381.61982270874	596.7132984416882	-39.059774537981376	3646.103064317729	547.4686600558443	206.68731928148682	3756.337035186323	498.27909347187403	427.84620261162183	3639.213447609722	417.06042228555884	537.8307154966456	3511.270429482396	397.13718232721686	546.2921044762736	3517.857975571118	376.8196666472153	556.4392615579175	3639.437792006599	395.92921047385795	-20.610369188698186	3516.423483295953	852.0449592647823	241.3637199680224	3478.9070016580627	878.1750216064287	492.020557598913	3449.848276811643	869.2022833357469	601.4347943947491	3422.794675623878	824.5236186197346	594.3423734283547	3338.7119982671347	802.6756024483527	607.1667156180255	3389.6127281580075	886.3426283921118
278	4.633333333333334	464.7938984528831	3602.419369601791	555.5058122979387	872.9959260451202	3632.496738222284	563.8957899952779	1243.3759261689029	3702.379257469205	624.0034557938845	1331.857054239233	3611.3379277054464	604.4923383542683	1300.5673857539045	3617.238018725025	542.4805174273389	1270.3325953048345	3690.8210542449524	628.0280765372073	472.4259216693001	3496.2342794282504	745.7881952177215	885.0713056799588	3525.4206760612524	742.6053239955723	1237.4094295048587	3595.708398373549	729.9794361274926	1331.869410463233	3562.6925418197557	685.234450575116	1277.6319964033887	3466.0455112905483	705.6986907255723	1274.1594082756417	3618.663899659137	724.8707922343914	-117.39117360805116	3572.332559582639	691.7010154181071	-382.91632575369306	3495.1926679739245	641.8148803069514	-232.67494878204846	3381.2967019304106	596.4780254884278	-39.02267414850026	3646.455204533451	547.6054305765743	207.0072572721461	3758.333537655248	499.7805235652427	427.80571218373524	3639.3964769448467	417.1285099218435	537.4334115482703	3514.0067734239356	396.7663193680713	546.1727354128567	3518.018271289805	376.8332786887678	556.2878273254807	3639.2002339244345	395.81660764199853	-21.70297807161981	3517.656666371572	852.7368919506971	240.79109306512402	3479.116087356826	878.2819277472324	491.85158877404484	3449.7850037497865	869.1754483774209	599.7451969583068	3415.745493036056	821.0988967611911	593.5462790799155	3335.4910315539155	800.6061731643581	607.1431286857731	3390.2392414758106	885.260111188622
279	4.65	466.18494855141097	3608.4163192000397	560.3617537115463	871.8812236457034	3633.60943659904	565.008472205429	1242.3855084785093	3702.1755375004805	623.7175004823437	1330.8642748823308	3611.560319465639	603.4212893905103	1298.0046859808454	3616.001357719757	541.719252757533	1267.9453521919606	3688.081817463576	625.8349418366977	473.12041349185915	3497.9008801203026	747.2875081397692	884.2946304082084	3525.8124587264488	742.5333964474805	1239.1279801476803	3595.303895925234	728.9618050239862	1331.837072590813	3562.749481260601	685.2246983856973	1278.6665259250285	3467.1278281447144	707.2265980225784	1274.196499803286	3618.5982027460223	724.8017850685295	-116.50242405022757	3576.193457887811	695.1432250270557	-382.51997118953136	3494.8642277056115	641.6630022633309	-232.67699418053803	3381.3717838852967	596.5183703887666	-40.48918100484446	3645.8633990608696	547.4099609072096	207.05360206865834	3763.120840452966	503.4167019909796	427.67798896448295	3639.0526509136116	417.09479197107794	537.6352061513646	3517.547015900913	397.1046794576085	545.9656774788883	3517.9959151609896	376.80823980622364	555.022835826428	3638.5172486822717	395.51770691957324	-22.058074160220247	3519.725635814515	854.5033761310231	240.6812389072745	3478.7174007304516	878.0114825524905	491.89165714274026	3449.8963191638372	869.2426818157185	597.3724882064216	3410.8137068131114	817.3503489178048	593.3914874411329	3334.9828234280885	800.2890270864054	607.3753016117106	3390.9047414932907	884.9835681721997
280	4.666666666666667	466.78687553365785	3612.5739117218664	563.7764904683431	867.9529320631962	3632.2503388100154	564.6401415029403	1241.7218574477113	3702.0922900555097	623.4945436984101	1328.4651511803334	3611.345551445034	602.574230127148	1296.3708992169393	3615.2768761886737	541.2083728381501	1266.5940943986463	3686.7111038360026	623.9880544788809	473.2679198008196	3498.1858104513003	747.6618474635675	881.8101674104637	3525.56214666458	742.6773561005392	1239.907279951638	3595.8527287116226	727.8571715930561	1331.840674077686	3562.778831023342	685.4052158313265	1281.2169722089227	3471.7416412113407	711.5574198720838	1274.2761549448005	3618.5641167793306	724.7326722738562	-116.75428334721477	3577.6251915531643	696.5004547668452	-382.3449201760147	3494.8989093541904	641.6883765615569	-232.71328060093765	3382.8636157893834	597.8138786848776	-42.73001060330179	3644.784311860069	547.0543115283133	206.5329636430382	3769.0960967870224	508.0663476283286	427.66719759474984	3638.7378217860314	417.0198555520399	538.4765860094292	3520.675813449713	397.5954775582079	545.554482900464	3517.8277045280834	376.77982861785443	554.1507892657141	3637.9633945155797	395.33348323142934	-21.872975642015746	3523.667731739504	858.2780529091463	240.6916367560825	3477.892372643631	877.4660259638606	491.9483019814699	3450.0066573200365	869.3179451942647	594.3425023295458	3409.36901185746	814.307946496182	593.7562299218239	3336.9579357575053	801.0805249120446	607.5330590745725	3391.119461023262	885.0092976058236
